<svg width="168" height="40" viewBox="0 0 168 40" fill="none" xmlns="http://www.w3.org/2000/svg">
<path d="M40 20C40 31.0453 31.0482 40 20.0019 40C8.9554 40 0 31.0453 0 20C0 8.95465 8.9554 0 20.0019 0C31.0483 0 40 8.95465 40 20Z" fill="black"/>
<path d="M20.1659 31.1519C14.6704 31.1706 8.95045 26.4817 8.9249 18.9491C8.90651 13.9702 11.5973 9.17512 15.0306 6.33107C18.3829 3.56054 22.9743 1.77847 27.1354 1.76367C27.6721 1.76367 28.2345 1.80779 28.5764 1.92534C24.9372 2.6786 22.0406 6.06647 22.0516 9.90624C22.0516 10.0348 22.0626 10.1707 22.0772 10.2332C28.1682 11.7177 30.9325 15.3921 30.9509 20.4738C30.9656 25.5593 26.9518 31.13 20.1659 31.1519Z" fill="white"/>
<path d="M54.3582 39.3581L48 11.459H52.1536L56.1199 29.9859L59.9638 11.459H63.93L57.7591 39.3583L54.3582 39.3581ZM74.9958 25.2645C74.9958 24.1053 74.9232 23.0022 74.7741 21.9554C74.6289 20.9087 74.4073 20.0093 74.1131 19.2576C73.8189 18.4988 73.4635 17.9016 73.0432 17.459C72.6229 17.0095 72.13 16.7845 71.5645 16.7845C70.999 16.7845 70.5022 17.0095 70.0857 17.459C69.6654 17.9016 69.3062 18.4988 69.0158 19.2576C68.7215 20.0093 68.5 20.9087 68.3548 21.9554C68.2057 23.0024 68.1331 24.1053 68.1331 25.2647C68.1331 26.466 68.2057 27.5831 68.3547 28.6089C68.5 29.6346 68.7139 30.5338 68.9967 31.3067C69.2794 32.0795 69.6386 32.6907 70.0704 33.1404C70.4983 33.5829 70.999 33.8078 71.5644 33.8078C72.13 33.8078 72.6229 33.5829 73.0432 33.1404C73.4635 32.6907 73.8189 32.0795 74.113 31.3067C74.4073 30.5338 74.629 29.6344 74.774 28.6089C74.9231 27.5831 74.9958 26.466 74.9958 25.2645ZM78.8359 25.2953C78.8359 27.1148 78.683 28.8993 78.3812 30.6557C78.0755 32.4121 77.6246 33.979 77.0247 35.37C76.4286 36.7611 75.672 37.8782 74.7588 38.7282C73.8456 39.5784 72.7795 40 71.5645 40C70.3455 40 69.2795 39.5782 68.37 38.7282C67.4568 37.8782 66.7002 36.7611 66.1003 35.37C65.5042 33.979 65.0534 32.4121 64.7477 30.6557C64.4459 28.8993 64.2929 27.1148 64.2929 25.2953C64.2929 23.4824 64.4459 21.7121 64.7477 19.9696C65.0534 18.2344 65.5042 16.6817 66.1003 15.3117C66.7002 13.9417 67.4568 12.8457 68.37 12.0166C69.2795 11.1876 70.3455 10.7661 71.5645 10.7661C72.7795 10.7661 73.8418 11.1878 74.7436 12.0166C75.6453 12.8457 76.4018 13.9417 77.0094 15.3117C77.6208 16.6817 78.0755 18.2344 78.3812 19.9696C78.683 21.7121 78.8359 23.4824 78.8359 25.2953ZM90.5627 17.5996C89.81 17.0585 89.1107 16.7845 88.461 16.7845C87.7962 16.7845 87.2193 17.0237 86.7417 17.4871C86.2602 17.9505 85.8628 18.5761 85.5495 19.37C85.2361 20.164 85.0031 21.0562 84.8465 22.0468C84.6887 23.0371 84.6089 24.0639 84.6095 25.0958C84.6095 26.2551 84.6782 27.3652 84.8158 28.4331C84.9496 29.494 85.1597 30.4286 85.4425 31.2223C85.7214 32.0163 86.0768 32.6556 86.5048 33.1404C86.9327 33.6181 87.4409 33.8641 88.0255 33.8641C88.507 33.8641 88.9961 33.6182 89.4966 33.1404C89.9972 32.6556 90.3526 32.0795 90.5627 31.4262V17.5996ZM90.876 39.3581L90.7194 37.2223C90.364 37.953 89.894 38.5993 89.3055 39.1544C88.721 39.7164 88.0293 39.9974 87.2346 39.9974C86.1915 39.9974 85.2667 39.5901 84.4758 38.7821C83.6772 37.9741 83.0085 36.8921 82.4659 35.5432C81.9233 34.1943 81.5068 32.6275 81.224 30.8501C80.9451 29.0795 80.8038 27.2248 80.8038 25.2927C80.8031 23.4874 80.9499 21.6922 81.2394 19.9672C81.5336 18.2318 81.9768 16.6793 82.5728 15.3093C83.1728 13.9391 83.918 12.8431 84.8197 12.0142C85.7176 11.1851 86.776 10.7637 87.9873 10.7637C88.7821 10.7637 89.6419 11.0374 90.5627 11.5715V0.751775H94.4639V39.3581H90.876ZM105.453 26.2762C105.033 26.3169 104.597 26.3891 104.154 26.4803C103.73 26.5731 103.308 26.6997 102.889 26.8595C102.041 27.1684 101.457 27.6956 101.128 28.4474C100.803 29.2062 100.639 30.021 100.639 30.9132C100.639 31.8337 100.822 32.5784 101.193 33.1404C101.563 33.6954 102.083 33.9766 102.759 33.9766C103.268 33.978 103.77 33.7817 104.234 33.4005C104.708 33.0139 105.117 32.5292 105.453 31.9532V26.2762ZM105.767 39.337L105.614 37.2504C105.19 38.1076 104.655 38.7821 104.001 39.2667C103.348 39.7518 102.633 39.9974 101.854 39.9974C101.2 39.9974 100.57 39.7936 99.974 39.3862C99.3702 38.9861 98.8391 38.4027 98.3767 37.6509C97.9144 36.8991 97.5399 35.9786 97.2572 34.8758C96.9706 33.7727 96.8292 32.5292 96.8292 31.1382C96.8292 29.7541 96.9744 28.5243 97.2725 27.4636C97.5666 26.4028 97.964 25.5104 98.4723 24.7729C98.9766 24.0422 99.5574 23.4449 100.211 22.9813C100.86 22.5177 101.548 22.1663 102.263 21.9343C102.767 21.7447 103.321 21.6041 103.921 21.5057C104.521 21.4073 105.022 21.3231 105.423 21.2456V20.8383C105.423 19.2925 105.209 18.1967 104.773 17.5363C104.341 16.8827 103.745 16.5525 102.989 16.5525C102.545 16.5525 102.121 16.651 101.72 16.8478C101.319 17.0374 100.964 17.2766 100.646 17.5644C100.329 17.8595 100.05 18.1475 99.8058 18.4357C99.5651 18.7237 99.3702 18.9836 99.2212 19.2154L97.9296 14.1849C98.0977 13.9112 98.3538 13.5878 98.7015 13.2014C99.0493 12.8149 99.4657 12.4355 99.9625 12.0702C100.455 11.7047 101.009 11.3957 101.629 11.1429C102.247 10.89 102.916 10.7637 103.627 10.7637C104.467 10.7637 105.236 10.9675 105.927 11.3748C106.619 11.7822 107.219 12.4145 107.723 13.2857C108.224 14.15 108.617 15.246 108.904 16.5809C109.186 17.9087 109.328 19.5175 109.328 21.4074V39.337H105.767ZM121.387 7.11726C121.261 7.00497 121.016 6.83627 120.65 6.6252C120.279 6.41469 119.794 6.30906 119.182 6.30906C118.64 6.30906 118.181 6.61151 117.814 7.20845C117.448 7.80558 117.264 8.78211 117.264 10.1312V11.459H120.539V17.2481H117.295V39.3581H113.39V17.2481H111.376V11.459H113.39V9.95547C113.39 8.14281 113.516 6.61133 113.768 5.35362C114.02 4.10313 114.372 3.07721 114.822 2.29029C115.273 1.49652 115.805 0.913451 116.412 0.548108C117.023 0.182394 117.684 0 118.399 0C119.343 0 120.122 0.161676 120.741 0.492057C121.36 0.822439 121.723 1.03998 121.827 1.15948L121.387 7.11726ZM132.029 25.2645C132.029 24.1053 131.952 23.0022 131.807 21.9554C131.662 20.9087 131.44 20.0093 131.146 19.2576C130.852 18.4988 130.496 17.9016 130.076 17.459C129.656 17.0095 129.163 16.7845 128.597 16.7845C128.032 16.7845 127.535 17.0095 127.119 17.459C126.698 17.9016 126.339 18.4988 126.045 19.2576C125.754 20.0093 125.533 20.9087 125.384 21.9554C125.239 23.0024 125.166 24.1053 125.166 25.2647C125.166 26.466 125.239 27.5831 125.384 28.6089C125.533 29.6346 125.747 30.5338 126.03 31.3067C126.312 32.0795 126.672 32.6907 127.1 33.1404C127.531 33.5829 128.032 33.8078 128.597 33.8078C129.163 33.8078 129.656 33.5829 130.076 33.1404C130.496 32.6907 130.852 32.0795 131.146 31.3067C131.44 30.5338 131.662 29.6344 131.807 28.6089C131.952 27.5831 132.029 26.466 132.029 25.2645ZM135.869 25.2953C135.869 27.1148 135.716 28.8993 135.41 30.6557C135.108 32.4121 134.658 33.979 134.058 35.37C133.462 36.7611 132.705 37.8782 131.792 38.7282C130.879 39.5784 129.812 40 128.597 40C127.378 40 126.312 39.5782 125.403 38.7282C124.49 37.8782 123.733 36.7611 123.133 35.37C122.537 33.979 122.086 32.4121 121.781 30.6557C121.478 28.9233 121.325 27.1147 121.326 25.2953C121.326 23.4824 121.475 21.7121 121.781 19.9696C122.086 18.2344 122.537 16.6817 123.133 15.3117C123.733 13.9417 124.49 12.8457 125.403 12.0166C126.312 11.1876 127.378 10.7661 128.597 10.7661C129.812 10.7661 130.875 11.1878 131.777 12.0166C132.678 12.8457 133.435 13.9417 134.042 15.3117C134.654 16.6817 135.108 18.2344 135.41 19.9696C135.716 21.7121 135.869 23.4824 135.869 25.2953ZM147.985 39.3581V23.4449C147.985 21.3231 147.745 19.6791 147.263 18.5198C146.778 17.3676 146.109 16.7847 145.246 16.7847C144.638 16.7847 144.076 17.0725 143.564 17.6558C143.049 18.2318 142.602 18.8711 142.223 19.5667V39.3581H138.322V11.459H141.879L142.067 13.6581C142.681 12.73 143.38 12.0071 144.13 11.5223C144.894 11.0165 145.666 10.7705 146.442 10.7705C147.24 10.7705 147.974 10.9882 148.646 11.4309C149.319 11.8806 149.896 12.5833 150.377 13.5456C150.863 14.5083 151.233 15.7658 151.497 17.3045C151.757 18.85 151.89 20.7049 151.89 22.8618V39.3581H147.985ZM164.034 22.0538C163.992 21.0913 163.881 20.2483 163.701 19.5386C163.522 18.8219 163.3 18.2459 163.036 17.8034C162.773 17.3535 162.49 17.0305 162.184 16.8126C161.875 16.6021 161.565 16.4965 161.248 16.4965C160.572 16.4965 159.93 16.9601 159.319 17.8876C158.707 18.8151 158.348 20.1991 158.241 22.054L164.034 22.0538ZM158.149 27.2037C158.233 29.5573 158.631 31.2575 159.349 32.2973C160.064 33.3371 160.992 33.8641 162.127 33.8641C162.654 33.8641 163.151 33.7727 163.613 33.604C164.076 33.4286 164.489 33.2105 164.848 32.9366C165.207 32.6695 165.513 32.3957 165.765 32.1286C166.017 31.8548 166.204 31.6017 166.334 31.3699L167.373 37.2223C167.224 37.4119 166.988 37.6718 166.663 38.0022C166.338 38.3326 165.933 38.6345 165.451 38.9295C164.97 39.2175 164.401 39.4635 163.751 39.6813C163.101 39.8918 162.387 39.9974 161.611 39.9974C160.622 39.9974 159.685 39.7094 158.791 39.1332C157.901 38.5501 157.118 37.6507 156.449 36.4354C155.776 35.22 155.242 33.7094 154.844 31.8968C154.443 30.0839 154.244 27.9202 154.244 25.412C154.244 23.0584 154.428 20.9718 154.795 19.1592C155.161 17.3465 155.666 15.822 156.304 14.5854C156.946 13.3558 157.691 12.4074 158.539 11.747C159.391 11.0937 160.297 10.7635 161.264 10.7635C162.23 10.7635 163.121 11.0587 163.942 11.6348C164.76 12.2106 165.467 13.11 166.067 14.3253C166.663 15.5409 167.136 17.1147 167.48 19.0467C167.828 20.9718 168 23.2691 168 25.9318V27.2036L158.149 27.2037Z" fill="white"/>
</svg>
