<svg width="168" height="40" viewBox="0 0 168 40" fill="none" xmlns="http://www.w3.org/2000/svg">
<path d="M38.0469 0C35.0233 7.00796 31.4328 13.369 27.4014 18.7598C32.1888 24.6897 36.4724 31.9137 40 40L28.1572 36.2266H28.0938C27.9048 35.9032 27.7158 35.6877 27.4639 35.3643C25.3851 32.1297 23.1178 29.1101 20.7871 26.5225C18.5824 28.7866 16.3775 30.8351 14.0469 32.668L0 27.8164C2.77152 26.6304 5.41695 25.1209 8.0625 23.2881C9.82614 22.1022 11.5269 20.7007 13.2275 19.1914C12.1568 18.329 11.1493 17.574 10.0156 16.8193C7.36996 14.9864 4.66081 13.5848 1.95215 12.291L16 7.43945C17.5747 8.73316 19.0865 10.0268 20.6611 11.5361C22.3619 9.37978 23.9994 7.11516 25.5742 4.74316C25.7632 4.41983 25.9522 4.20423 26.2041 3.88086L38.0469 0Z" fill="white"/>
<path d="M63.803 25.182L48 11.3062H59.6916L70.0985 20.3854L80.1199 11.3062H91.5546L75.6231 25.2677L91.94 39.4861H80.2484L69.5846 30.1499L59.5632 39.4861H48.1285L63.9315 25.2677L63.803 25.182Z" fill="white"/>
<path d="M113.268 39.4861C105.174 39.4861 99.6489 36.3169 99.6489 30.0642V17.5589H93.6104V11.3062H99.6489V6.167L109.67 4.11133V11.3062H118.792V17.5589H109.67V29.8073C109.67 31.9486 111.341 33.1477 113.782 33.1477H118.792V39.4004H113.268V39.4861Z" fill="white"/>
<path d="M146.672 40C140.762 40 136.394 38.2869 133.31 35.6317V39.4004H123.803V0H133.824V14.818C136.908 12.4197 141.404 10.7923 147.058 10.7923C158.749 10.7923 168 17.3876 168 25.6103C168 33.833 158.878 40 146.801 40H146.672ZM157.593 25.439C157.593 20.7281 152.582 17.3876 145.516 17.3876C138.449 17.3876 133.439 20.7281 133.439 25.439C133.439 30.1499 138.449 33.4904 145.516 33.4904C152.582 33.4904 157.593 30.1499 157.593 25.439Z" fill="white"/>
</svg>
