<svg width="160" height="40" viewBox="0 0 160 40" fill="none" xmlns="http://www.w3.org/2000/svg">
<path d="M14.0055 0H4.61578C4.41747 0 4.239 0.219953 4.20925 0.51846L0.0150955 38.1775C-0.0939724 39.1359 0.401791 40 1.0562 40C1.43298 40 1.78001 39.7015 1.9684 39.2144L6.64841 27.0856C7.17392 25.7031 7.50112 24.7133 9.22638 24.8547H11.1103C16.8116 24.8547 20.6686 19.8272 21.4816 12.4588C22.2848 5.13747 19.6275 0 14.0155 0H14.0055ZM16.0877 12.4588C15.6911 16.1037 13.9659 18.6174 10.9417 18.6174H7.90765C7.64985 18.6174 7.45155 18.2718 7.50112 17.8947L8.74053 6.86567C8.77028 6.56716 8.94875 6.34721 9.14706 6.34721H12.3199C15.3342 6.34721 16.4943 8.76669 16.0977 12.4588H16.0877Z" fill="white"/>
<path d="M25.6855 39.4187H20.5098L24.6345 0H29.8103L25.6756 39.4187H25.6855Z" fill="white"/>
<path d="M29.8103 31.1705C30.5143 24.5876 34.0243 22.608 37.7822 22.0581C41.0542 21.5397 42.3729 21.2883 42.5911 19.403V19.293C42.839 16.8735 42.0061 15.4596 40.261 15.4596C38.4167 15.4596 37.0881 16.905 36.5328 18.8688L31.8231 18.2561C33.0823 12.8673 36.4039 9.47369 40.8856 9.47369C45.0203 9.47369 48.4807 12.4431 47.747 19.4815L45.645 39.4187H40.7369L41.1732 35.3182H41.0245C39.8346 38.0676 37.8417 39.9843 35.0852 39.9843C31.5356 39.9843 29.2055 36.9992 29.8103 31.1705ZM41.6194 28.861L41.9367 25.7188C41.2723 26.3786 39.3587 26.7557 38.2284 27.0542C36.3544 27.4627 35.0059 28.5939 34.7778 30.9034C34.5597 33.1343 35.5413 34.3284 37.1575 34.3284C39.4281 34.3284 41.2723 31.956 41.6194 28.861Z" fill="white"/>
<path d="M62.0545 16.0094H58.5345L57.0274 30.3377C56.7795 32.6158 57.4538 33.2285 58.485 33.2285C58.9708 33.2285 59.5261 33.04 59.7938 32.9614L59.9921 39.0573C59.4071 39.3401 58.4255 39.7643 57.0869 39.8271C53.2794 40.0628 51.0981 37.1877 51.7525 31.4218L53.3588 16.0251H50.8105L51.465 9.86639H54.0033L54.7469 2.78076H59.9227L59.179 9.86639H62.699L62.0545 16.0251V16.0094Z" fill="white"/>
<path d="M63.5619 24.7761C64.5236 15.6481 68.7277 9.47369 74.2208 9.47369C79.1685 9.47369 82.4703 14.4383 81.4093 24.4933L81.1813 26.74H68.4699L68.4501 26.9442C67.9742 31.6104 69.3028 33.8728 71.9502 33.8728C73.6754 33.8728 75.133 32.6944 75.8965 30.4478L80.626 30.9505C79.2974 36.4336 75.8667 40 71.2264 40C65.4755 40 62.5803 34.1555 63.5718 24.7761H63.5619ZM76.8186 21.6497C77.1854 18.1304 75.9361 15.5852 73.6953 15.5852C71.4544 15.5852 69.4912 18.3975 69.0549 21.6497H76.8186Z" fill="white"/>
<path d="M96.451 24.619C97.3731 15.5381 101.488 9.47369 107.14 9.47369C112.791 9.47369 115.716 15.6795 114.764 24.8704C113.832 33.9199 109.708 40 104.076 40C98.444 40 95.4892 33.7942 96.451 24.619ZM109.559 24.5876C110.065 19.4815 109.172 15.7266 106.614 15.7266C104.056 15.7266 102.192 19.6229 101.657 24.839C101.131 29.9136 102.043 33.6528 104.601 33.6528C107.159 33.6528 109.014 29.8036 109.559 24.5876Z" fill="white"/>
<path d="M119.732 9.85071H124.749L124.204 15.0039H124.402C125.473 11.3432 127.387 9.42651 129.479 9.42651C130.004 9.42651 130.619 9.52078 131.075 9.6936L130.302 16.9835C129.856 16.7321 128.894 16.5436 128.15 16.5436C125.89 16.5436 123.956 19.0416 123.55 22.6865L121.814 39.4187H116.639L119.752 9.85071H119.732Z" fill="white"/>
<path d="M133.772 9.85078H138.69L138.154 15.0668H138.362C139.503 11.579 141.634 9.45801 144.173 9.45801C146.711 9.45801 148.387 11.6261 148.644 15.0668H148.843C149.943 11.6575 152.303 9.45801 155.05 9.45801C158.5 9.45801 160.553 13.1187 159.869 19.5287L157.776 39.4187H152.601L154.544 21.1469C154.861 17.8476 153.8 16.2137 152.155 16.2137C150.271 16.2137 148.952 18.2718 148.654 21.3512L146.721 39.403H141.704L143.667 20.9584C143.945 18.0519 143.003 16.198 141.287 16.198C139.572 16.198 138.015 18.3661 137.718 21.6497L135.824 39.403H130.658L133.772 9.83507V9.85078Z" fill="white"/>
<path d="M102.678 0.0157109C102.678 0.0157109 102.628 0 102.608 0H91.5925H89.5103C89.4706 0 89.431 0 89.3814 0H87.2992C87.2992 0 87.2199 0 87.1703 0C86.3572 0.0471328 86.506 1.87289e-07 86.3374 1.41398L85.6632 7.7769L82.2821 38.0047C82.2027 39.1359 82.5299 40 83.3331 40C83.4818 40 83.9379 39.8115 84.0271 39.5915C84.1362 39.3087 86.9026 31.4375 87.9635 27.8869C88.3105 26.74 88.2114 27.1013 88.6278 25.813L88.8757 25.0275C89.074 24.3991 89.3219 23.8178 89.6293 23.3307C89.659 23.2836 89.6788 23.2522 89.7086 23.205C90.3531 22.2467 91.6024 22.2781 91.6123 22.2781L93.3574 22.1524C93.3872 22.1524 93.4268 22.1524 93.4665 22.1367C93.6846 22.0738 93.8829 21.9167 94.0614 21.7125C94.1407 21.6182 94.2101 21.524 94.2597 21.4297L97.4227 15.8523C97.6606 15.271 97.5813 14.7054 97.2144 14.4069C97.2144 14.4069 97.2144 14.4069 97.2045 14.4069H90.0259L90.1052 13.6842L90.7695 7.7769H97.3731H97.3929C97.7697 7.71406 98.1465 7.55695 98.4439 7.25844H98.4539L102.906 1.46112C102.906 1.46112 102.916 1.4454 102.926 1.42969C103.243 0.864101 103.144 0.314218 102.668 0.0157109H102.678ZM89.0443 0.0628436C88.9848 0.0628436 88.9352 0.0942656 88.8757 0.109977C88.9352 0.0942656 88.9848 0.0785545 89.0443 0.0628436Z" fill="white"/>
</svg>
