<svg width="160" height="40" viewBox="0 0 160 40" fill="none" xmlns="http://www.w3.org/2000/svg">
<path d="M35.7097 39.8009L20.1892 19.3889L35.0789 0H23.5962L10.0946 17.2849V0H0V39.8009H10.0946V21.3788L24.2271 39.8009H35.7097Z" fill="white"/>
<path d="M54.3022 40C64.0183 40 71.3368 34.8828 71.3368 26.3538V0H61.2424V25.5578C61.2424 28.5714 59.6649 31.1302 54.3022 31.1302C48.9395 31.1302 47.3623 28.5714 47.3623 25.5578V0H37.2676V26.3538C37.2676 34.8828 44.5861 40 54.3022 40Z" fill="white"/>
<path d="M103.224 0V21.6062L86.1892 0H78.6182V39.8009H88.7126V18.1948L105.747 39.8009H113.318V0H103.224Z" fill="white"/>
<path d="M148.959 39.8009H160L144.984 0H132.113L117.098 39.8009H128.139L130.347 33.5465H146.751L148.959 39.8009ZM133.375 25.0178L138.549 10.4052L143.722 25.0178H133.375Z" fill="white"/>
</svg>
