<svg width="160" height="40" viewBox="0 0 160 40" fill="none" xmlns="http://www.w3.org/2000/svg">
<g clip-path="url(#clip0_22_71)">
<path d="M128.915 0H134.72C133.787 0.17641 132.909 1.04718 132.435 2.37128C131.79 4.09744 131.913 6.48 132.745 7.98872C133.23 8.93026 133.944 9.4841 134.684 9.66872C133.087 9.66256 131.489 9.66872 129.892 9.66667C129.468 9.65333 129.041 9.70769 128.62 9.61333C127.841 9.43795 127.121 8.7241 126.657 7.70051C125.994 6.26667 125.89 4.22256 126.403 2.6359C126.87 1.10974 127.867 0.0748718 128.915 0Z" fill="black"/>
<path d="M134.72 0H135.373C136.253 0.203077 137.078 1.01949 137.544 2.25846C138.223 3.96923 138.129 6.37641 137.313 7.92615C136.689 9.17846 135.668 9.82769 134.684 9.66872C133.945 9.4841 133.23 8.93026 132.746 7.98872C131.913 6.48 131.79 4.09744 132.436 2.37128C132.909 1.04718 133.787 0.17641 134.72 0Z" fill="white"/>
<path d="M106.923 4.82051C108.394 4.82051 109.866 4.81948 111.337 4.82153C111.337 7.76923 111.337 10.7179 111.337 13.6656C113.303 13.6667 115.27 13.6667 117.236 13.6656C117.237 15.7344 117.237 17.8041 117.236 19.8728C115.27 19.8718 113.303 19.8718 111.337 19.8728C111.335 22.9928 111.339 26.1128 111.335 29.2328C111.327 30.0903 111.439 30.9733 111.733 31.6974C112.015 32.4 112.478 32.8646 112.97 33.0892C113.976 33.5354 115.084 33.361 116.016 32.5949C116.269 32.3938 116.51 32.1528 116.752 31.9149C117.271 33.7333 117.786 35.5559 118.316 37.3662C116.863 39.1795 115 39.962 113.186 39.9497C111.868 39.9918 110.509 39.599 109.369 38.4841C108.481 37.6287 107.775 36.3036 107.361 34.7703C107.015 33.5138 106.849 32.1415 106.803 30.7723C106.772 28.3508 106.843 25.9251 106.747 23.5067C106.586 19.9682 105.829 16.4636 104.444 13.6913C105.27 13.6944 106.096 13.6892 106.921 13.6944C106.926 10.7364 106.922 7.77846 106.923 4.82051Z" fill="white"/>
<path d="M4.75433 14.8051C6.10965 13.6687 7.64656 13.1282 9.16955 13.1784C10.4375 13.1784 11.7131 13.5138 12.8976 14.2615C13.6075 14.7046 14.27 15.3231 14.8933 16.0256C14.2814 17.8872 13.6683 19.7477 13.0501 21.6041C12.027 20.4656 10.7887 19.8215 9.5435 19.8697C8.24259 19.841 6.88348 20.5507 5.98247 22.1231C4.59931 24.482 4.58982 28.5672 5.94134 30.9651C6.56711 32.0984 7.44535 32.8102 8.35965 33.0964C9.96932 33.5918 11.703 33.0574 13.0514 31.5272C13.6569 33.362 14.2548 35.2031 14.8578 37.04C14.1182 37.8431 13.3386 38.5682 12.4965 39.0482C11.3917 39.6892 10.2129 39.9754 9.0411 39.9497C7.02332 39.9918 4.97769 38.9907 3.37814 36.9692C2.09938 35.3692 1.13699 33.1179 0.663708 30.6133C0.0683057 27.4728 0.18283 23.9702 1.04588 20.9866C1.80579 18.3261 3.14529 16.1323 4.75433 14.8051Z" fill="white"/>
<path d="M22.9335 13.3128C24.8203 12.8964 26.795 13.3908 28.48 14.8533C29.8948 16.0677 31.0945 17.9508 31.8588 20.2359C33.1818 24.1374 33.1667 29.1385 31.8177 33.0174C30.9129 35.6574 29.4228 37.7344 27.7011 38.8708C24.9126 40.7231 21.5414 40.2123 19.0719 37.3713C17.6381 35.7446 16.534 33.3539 16.0069 30.6441C15.4387 27.7528 15.495 24.5456 16.1752 21.7159C16.7991 19.1118 17.9608 16.8697 19.4186 15.3836C20.4791 14.2903 21.6895 13.5939 22.9335 13.3128ZM23.4998 19.9662C22.6633 20.2144 21.8819 20.9169 21.3054 21.9292C20.7372 22.92 20.3658 24.198 20.245 25.5354C20.0665 27.4072 20.3797 29.4021 21.12 30.8749C21.6072 31.8667 22.2849 32.6021 23.0303 32.9815C23.892 33.4082 24.8424 33.3662 25.6852 32.8431C26.6356 32.2708 27.4233 31.0564 27.853 29.5733C28.4015 27.6995 28.4003 25.4236 27.8447 23.5549C27.429 22.1303 26.6843 20.958 25.7833 20.358C25.067 19.8677 24.2628 19.7528 23.4998 19.9662Z" fill="white"/>
<path d="M40.4668 14.8482C41.6576 13.6472 43.0807 13.1374 44.4739 13.1774C45.864 13.1723 47.2776 13.7425 48.4399 15.0051C49.4409 16.0861 50.2217 17.6666 50.6962 19.4533C51.1974 21.2984 51.3796 23.3292 51.3853 25.3333C51.384 30.0431 51.3884 34.7538 51.3828 39.4636C49.8693 39.4533 48.3551 39.4759 46.8416 39.4523C46.8486 35.0574 46.8467 30.6625 46.8423 26.2677C46.8423 24.441 46.5164 22.5087 45.6755 21.2236C44.2639 19.0677 41.7538 19.4184 40.5447 21.8482C39.9429 23.0123 39.6677 24.5466 39.6652 26.0492C39.662 30.52 39.6652 34.9907 39.6633 39.4625C38.1504 39.4605 36.6369 39.4625 35.124 39.4615C35.124 30.8636 35.124 22.2646 35.124 13.6666C36.2142 13.6656 37.3038 13.6677 38.394 13.6656C38.4421 15.1097 38.5091 16.5528 38.5598 17.9969C39.021 16.7118 39.6848 15.6246 40.4668 14.8482Z" fill="white"/>
<path d="M57.9516 14.7795C59.0108 13.8995 60.1807 13.3857 61.3658 13.2257C63.5044 12.9713 65.7411 13.5928 67.5653 15.4964C67.7298 15.6698 67.8924 15.8493 68.0576 16.0236C67.4495 17.8893 66.8351 19.7498 66.2144 21.6052C65.2058 20.478 63.9866 19.8369 62.7591 19.8698C61.7752 19.839 60.7729 20.2154 59.9358 21.0687C59.2556 21.7621 58.7039 22.7939 58.4052 24.0062C57.9686 25.7682 58.0066 27.8277 58.5122 29.5416C58.9329 30.9508 59.7011 32.0534 60.5913 32.6421C61.6341 33.3405 62.8046 33.4103 63.9062 33.0934C64.737 32.8544 65.521 32.2893 66.2182 31.5282C66.8238 33.3641 67.421 35.2062 68.0259 37.0421C67.4679 37.6328 66.8984 38.2031 66.2878 38.64C65.3356 39.3334 64.308 39.7385 63.269 39.8852C61.9542 40.0636 60.6122 39.9262 59.3461 39.2975C57.5865 38.4482 55.9869 36.6769 54.9284 34.2328C53.282 30.4882 53.0023 25.318 54.1697 21.1385C54.9271 18.3939 56.2976 16.1282 57.9516 14.7795Z" fill="white"/>
<path d="M72.4981 15.2677C73.8484 13.8698 75.4568 13.1682 77.0551 13.1785C78.5818 13.1375 80.1333 13.7364 81.4336 15.0575C82.9819 16.6041 84.1043 19.1436 84.6232 21.9528C85.0313 24.0923 85.1142 26.3703 84.9687 28.5908C81.078 28.5887 77.1873 28.5908 73.2966 28.5898C73.6237 30.4626 74.483 32.04 75.5605 32.879C76.8368 33.8985 78.3439 34 79.71 33.438C80.6699 33.0431 81.5196 32.1652 82.2663 31.1334C82.8984 32.8934 83.5216 34.6616 84.1461 36.4287C83.2577 37.7118 82.1834 38.6318 81.047 39.1867C79.9188 39.7354 78.7362 39.9764 77.5594 39.9498C75.3973 39.9928 73.2023 38.8185 71.5661 36.4954C70.2152 34.6082 69.2851 31.9559 68.9649 29.1128C68.6486 26.319 68.8517 23.3631 69.5705 20.7693C70.1912 18.5272 71.2162 16.5816 72.4981 15.2677ZM74.5526 20.5436C73.9351 21.401 73.5409 22.6082 73.3289 23.8667C75.7883 23.8718 78.249 23.881 80.7091 23.8626C80.6446 23.1744 80.5307 22.4934 80.3276 21.879C79.8454 20.3416 78.864 19.2954 77.8162 19.0769C76.6716 18.8554 75.4334 19.2893 74.5526 20.5436Z" fill="white"/>
<path d="M93.443 14.158C94.6705 13.2841 96.0397 13.0482 97.3666 13.2287C98.5656 13.3969 99.7539 14.0185 100.738 15.1569C101.658 16.2031 102.377 17.6851 102.831 19.3456C103.355 21.2492 103.562 23.3559 103.538 25.4318C103.536 30.1098 103.543 34.7877 103.535 39.4656C102.023 39.4574 100.511 39.4636 98.9997 39.4626C98.9965 34.9569 98.9997 30.4513 98.9978 25.9457C98.9762 24.1446 98.5909 22.2595 97.7266 21.0605C96.9287 19.9354 95.7961 19.599 94.7743 19.9108C93.8644 20.1662 93.0285 21.0308 92.5116 22.2718C92.0586 23.3467 91.839 24.6544 91.8327 25.9498C91.8327 30.4533 91.8333 34.958 91.832 39.4626C90.3192 39.4615 88.8063 39.4615 87.2934 39.4615C87.2928 30.8636 87.2928 22.2646 87.2934 13.6667C88.2881 13.6646 89.2834 13.6708 90.2787 13.6636C90.3654 13.6841 90.4767 13.6226 90.5533 13.7118C90.6191 15.1354 90.6634 16.5641 90.7279 17.9887C91.3385 16.2677 92.3237 14.9385 93.443 14.158Z" fill="white"/>
<path d="M125.869 14.7056C126.883 13.6226 128.114 13.1405 129.321 13.1774C129.762 13.1733 130.207 13.2174 130.636 13.3887C130.64 14.1887 130.555 14.9898 130.529 15.7908C130.441 17.4287 130.36 19.0677 130.269 20.7056C129.195 19.9795 127.946 20.0513 126.874 20.7426C125.876 21.3867 125.085 22.7928 124.789 24.4677C124.546 25.6759 124.618 26.958 124.608 28.2072C124.61 31.9559 124.604 35.7046 124.611 39.4533C123.096 39.4657 121.58 39.4708 120.064 39.4513C120.074 30.8564 120.065 22.2615 120.069 13.6667C121.327 13.6667 122.587 13.6667 123.845 13.6656C123.903 15.3139 123.96 16.961 124.017 18.6092C124.327 17.0051 125.002 15.6185 125.869 14.7056Z" fill="white"/>
<path d="M132.739 13.6656C134.252 13.6677 135.765 13.6656 137.278 13.6667C137.278 22.2646 137.278 30.8636 137.278 39.4615C135.765 39.4626 134.252 39.4605 132.739 39.4626C132.738 30.8636 132.738 22.2646 132.739 13.6656Z" fill="white"/>
<path d="M139.087 13.6667C140.846 13.6677 142.605 13.6646 144.364 13.6677C145.39 16.2944 146.409 18.9282 147.437 21.5518C148.502 18.9159 149.573 16.2872 150.647 13.6605C152.369 13.6749 154.091 13.6615 155.813 13.6677C153.936 17.8944 152.055 22.1159 150.176 26.3405C152.111 30.7159 154.052 35.0851 155.985 39.4626C154.205 39.4636 152.425 39.4554 150.645 39.4667C149.537 36.7487 148.433 34.0277 147.333 31.3015C146.225 34.0144 145.126 36.7385 144.022 39.4564C142.286 39.4667 140.55 39.4636 138.814 39.4574C140.714 35.1426 142.613 30.8277 144.517 26.5169C142.713 22.2277 140.896 17.9518 139.087 13.6667Z" fill="white"/>
<path d="M156.831 13.6656C157.232 13.6677 157.632 13.6656 158.033 13.6677C158.03 13.7785 158.029 13.8903 158.03 14.001C157.871 14 157.715 14 157.558 14C157.556 14.6062 157.558 15.2123 157.558 15.8195C157.498 15.8195 157.381 15.8205 157.322 15.8215C157.318 15.2144 157.32 14.6082 157.32 14.001C157.155 14 156.991 13.999 156.828 13.9969C156.829 13.9139 156.831 13.7487 156.831 13.6656Z" fill="white"/>
<path d="M158.206 13.6687C158.272 13.6677 158.341 13.6667 158.411 13.6667C158.604 14.1467 158.798 14.6267 158.992 15.1067C159.184 14.6246 159.37 14.1354 159.568 13.6584C159.615 13.6605 159.709 13.6646 159.757 13.6667V15.8215C159.682 15.8205 159.609 15.8205 159.539 15.8195C159.524 15.3487 159.516 14.8779 159.516 14.4061C159.351 14.8082 159.19 15.2133 159.031 15.6195C158.746 15.3528 158.646 14.7959 158.444 14.401C158.443 14.8738 158.443 15.3467 158.444 15.8195C158.384 15.8205 158.266 15.8205 158.207 15.8205C158.205 15.1036 158.207 14.3856 158.206 13.6687Z" fill="white"/>
</g>
<defs>
<clipPath id="clip0_22_71">
<rect width="160" height="40" fill="white"/>
</clipPath>
</defs>
</svg>
