<svg width="160" height="40" viewBox="0 0 160 40" fill="none" xmlns="http://www.w3.org/2000/svg">
<g clip-path="url(#clip0_41_663)">
<path d="M3.30063 35.8815V18.726H2.17359C1.48931 18.7556 0.966038 18.489 0.583648 17.8964C0.201258 17.3038 0 16.5334 0 15.526C0 14.6075 0.201258 13.8371 0.603774 13.2149C1.00629 12.5927 1.52956 12.2964 2.17359 12.2964L3.30063 12.2371V7.79266C3.30063 6.57784 3.54214 5.60006 4.02516 4.85932C4.50818 4.11858 5.11195 3.7334 5.83648 3.7334C6.58113 3.7334 7.18491 4.11858 7.66792 4.85932C8.13082 5.62969 8.37233 6.60747 8.37233 7.85192V12.2371H9.80126C10.4453 12.2667 11.0289 12.5334 11.4918 13.0075C11.9748 13.4815 12.2164 14.3112 12.2164 15.526C12.2164 16.6815 11.9748 17.5112 11.4918 18.0149C11.0088 18.5186 10.4453 18.7556 9.80126 18.7556H8.37233V35.8815C8.37233 37.1556 8.13082 38.163 7.66792 38.9038C7.20503 39.6445 6.60126 40.0001 5.83648 40.0001C5.11195 40.0001 4.50818 39.6445 4.02516 38.9038C3.54214 38.163 3.30063 37.1853 3.30063 35.9408V35.8815Z" fill="white"/>
<path d="M29.7053 16.7407V35.1407V35.9703C29.7053 36.237 29.6852 36.5333 29.6651 36.8592C29.6047 37.6592 29.4035 38.3703 29.0814 39.0222C28.7594 39.674 28.1557 39.9999 27.2701 39.9999C26.5456 39.9999 26.0022 39.7333 25.6601 39.1703C25.3179 38.6073 25.0362 37.8666 24.855 36.8888C24.1909 38.0147 23.4663 38.874 22.6814 39.437C21.8965 39.9999 21.011 40.2962 20.045 40.2962C17.6902 40.2962 15.6978 38.9629 14.1079 36.2962C12.4978 33.6296 11.7129 30.1925 11.7129 26.0444C11.7129 21.9555 12.5179 18.5184 14.1481 15.7629C15.7783 13.0073 17.7506 11.6147 20.0651 11.6147C20.9909 11.6147 21.8965 11.8814 22.7418 12.4444C23.5871 13.0073 24.3116 13.8666 24.855 15.0518C24.9154 14.1333 25.1972 13.3925 25.6601 12.7999C26.123 12.2073 26.6663 11.911 27.2701 11.911C28.1557 11.911 28.7594 12.237 29.0814 12.9184C29.4035 13.5999 29.5846 14.311 29.6651 15.111C29.6852 15.437 29.7053 15.7036 29.7053 15.9999V16.7703V16.7407ZM16.7645 26.0147V26.5184C16.7645 26.6666 16.7846 26.8444 16.8047 27.0222C16.9053 28.6518 17.2676 30.1333 17.9116 31.5259C18.5557 32.8888 19.5016 33.5999 20.7695 33.5999C21.977 33.5999 22.9028 32.9184 23.5469 31.5259C24.1708 30.1629 24.533 28.6518 24.6336 27.0222C24.6538 26.8444 24.6739 26.6962 24.6739 26.5184V26.074C24.6739 25.8962 24.6739 25.7184 24.6538 25.5407C24.6336 25.3629 24.6336 25.1555 24.6336 24.9481C24.5129 23.3184 24.1506 21.837 23.5066 20.5036C22.8827 19.1703 21.9569 18.4888 20.7695 18.4888C19.5217 18.4888 18.5959 19.1703 17.9519 20.5036C17.3079 21.837 16.9255 23.3184 16.8047 24.9481C16.8047 25.1555 16.8047 25.3629 16.7846 25.5407C16.7645 25.7184 16.7645 25.9259 16.7645 26.074V26.0147Z" fill="white"/>
<path d="M32.5039 35.8816V4.08904C32.5039 2.87423 32.7454 1.89645 33.2284 1.15571C33.7115 0.385341 34.3152 0.0297852 35.0398 0.0297852C35.7844 0.0297852 36.3882 0.41497 36.8712 1.15571C37.3341 1.92608 37.5756 2.90386 37.5756 4.1483V35.8816C37.5756 37.1557 37.3341 38.1631 36.8712 38.9039C36.4083 39.6446 35.8045 40.0002 35.0398 40.0002C34.3152 40.0002 33.7115 39.6446 33.2284 38.9039C32.7454 38.1631 32.5039 37.1853 32.5039 35.9409V35.8816Z" fill="white"/>
<path d="M40.3516 35.8816V4.08904C40.3516 2.87423 40.5931 1.89645 41.0761 1.15571C41.5591 0.385341 42.1629 0.0297852 42.8874 0.0297852C43.6321 0.0297852 44.2358 0.41497 44.7189 1.15571C45.1818 1.92608 45.4233 2.90386 45.4233 4.1483V21.3927L50.9579 13.4816C51.3604 12.9187 51.7428 12.5335 52.1453 12.2965C52.5478 12.0594 52.9101 11.9409 53.2321 11.9409C53.8358 11.9409 54.339 12.2668 54.7415 12.9483C55.144 13.6298 55.3453 14.3409 55.3654 15.1409V15.2298V15.3187C55.3654 15.6742 55.3453 16.0002 55.2849 16.3261C55.2245 16.652 55.1239 16.9779 54.983 17.2742C54.8824 17.452 54.8019 17.6002 54.7012 17.7779C54.6006 17.9261 54.5 18.1039 54.3792 18.2816L49.8912 24.1187L55.8082 34.3705C55.9692 34.6372 56.0899 34.9335 56.1704 35.2298C56.2509 35.5261 56.3113 35.7927 56.3717 36.089C56.3918 36.2372 56.4119 36.3557 56.4321 36.5039C56.4522 36.652 56.4522 36.7705 56.4522 36.9187C56.4522 37.8965 56.2308 38.6964 55.7679 39.3779C55.305 40.0594 54.7415 40.3853 54.0774 40.3853C53.7755 40.3853 53.4937 40.2964 53.2119 40.1187C52.9503 39.9409 52.6887 39.7039 52.427 39.4076C52.3063 39.2298 52.1855 39.052 52.0648 38.8446C51.944 38.6372 51.8031 38.4002 51.6623 38.1631L45.4836 26.9039H45.4233V35.9409C45.4233 37.215 45.1818 38.2224 44.7189 38.9631C44.256 39.7039 43.6522 40.0594 42.8874 40.0594C42.1629 40.0594 41.5591 39.7039 41.0761 38.9631C40.5931 38.2224 40.3516 37.2446 40.3516 36.0002V35.8816Z" fill="white"/>
<path d="M57.8821 35.8814V15.9999C57.8821 14.7851 58.1236 13.8073 58.6066 13.0666C59.0896 12.2962 59.6934 11.9407 60.4179 11.9407C61.0821 11.9407 61.6053 12.1777 61.9877 12.6518C62.3902 13.1259 62.6317 13.837 62.7324 14.7259C63.3361 13.7184 64.0405 12.9777 64.8456 12.4147C65.6305 11.8814 66.4959 11.6147 67.4418 11.6147C68.4883 11.6147 69.4544 11.9407 70.36 12.5629C71.2456 13.1851 72.0104 14.1333 72.6745 15.3777C73.1173 14.6666 73.6204 14.0147 74.1839 13.4814C74.7475 12.9184 75.311 12.5036 75.8946 12.1777C76.277 11.9999 76.6393 11.8814 76.9814 11.7629C77.3236 11.674 77.6657 11.6147 77.9877 11.6147C80.0405 11.6147 81.711 12.474 82.9789 14.1629C84.2468 15.8814 84.8909 18.3703 84.8909 21.6296V35.8518C84.8909 37.1259 84.6493 38.1333 84.1864 38.874C83.7236 39.6147 83.1198 39.9703 82.355 39.9703C81.6305 39.9703 81.0267 39.6147 80.5437 38.874C80.0607 38.1333 79.8192 37.1555 79.8192 35.911V22.9333C79.8192 21.4518 79.5575 20.237 79.0343 19.2888C78.511 18.3407 77.7865 17.8666 76.8808 17.8666C75.955 17.8666 75.2104 18.3407 74.6871 19.2888C74.1638 20.237 73.9022 21.4518 73.9022 22.9925V35.911C73.9022 37.1851 73.6607 38.1925 73.1978 38.9333C72.7349 39.674 72.1311 40.0296 71.3663 40.0296C70.6418 40.0296 70.038 39.674 69.555 38.9333C69.072 38.1925 68.8305 37.2147 68.8305 35.9703V22.9333C68.8305 21.4518 68.5688 20.237 68.0456 19.2888C67.5223 18.3407 66.7978 17.8666 65.8921 17.8666C64.8657 17.8666 64.1009 18.3407 63.638 19.2888C63.155 20.237 62.9135 21.4518 62.9135 22.9925V35.911C62.9135 37.1851 62.672 38.1925 62.2091 38.9333C61.7462 39.674 61.1424 40.0296 60.3776 40.0296C59.6531 40.0296 59.0493 39.674 58.5663 38.9333C58.0833 38.1925 57.8418 37.2147 57.8418 35.9703V35.8814H57.8821Z" fill="white"/>
<path d="M96.0806 11.6147C98.7372 11.6444 100.911 13.1259 102.601 16.0296C104.292 18.9333 105.117 22.2814 105.117 26.074C105.117 29.9259 104.292 33.274 102.622 36.0888C100.971 38.9036 98.7775 40.3259 96.0605 40.3259C93.3435 40.3259 91.1699 38.9036 89.4995 36.0888C87.8492 33.274 87.0039 29.9259 87.0039 26.074C87.0039 22.2814 87.8492 18.9333 89.5196 16.0296C91.2102 13.1259 93.3838 11.674 96.0404 11.674V11.6147H96.0806ZM93.2429 20.5036C92.5989 21.837 92.2165 23.3184 92.0957 24.9481C92.0957 25.1555 92.0957 25.3629 92.0756 25.5407C92.0555 25.7184 92.0555 25.8962 92.0555 26.074V26.5184C92.0555 26.6666 92.0756 26.8444 92.0957 27.0222C92.1964 28.6518 92.5586 30.1333 93.2027 31.5259C93.8467 32.8888 94.7926 33.5999 96.0605 33.5999C97.3284 33.5999 98.2743 32.9184 98.9184 31.5259C99.5624 30.1333 99.9247 28.6518 100.025 27.0222C100.045 26.8444 100.066 26.6962 100.066 26.5184V26.074C100.066 25.8962 100.066 25.7184 100.045 25.5407C100.025 25.3629 100.025 25.1555 100.025 24.9481C99.9045 23.3184 99.5221 21.837 98.8781 20.5036C98.2341 19.1703 97.2882 18.4888 96.0605 18.4888C94.8328 18.4592 93.8869 19.1407 93.2429 20.5036Z" fill="white"/>
<path d="M107.27 35.8816V4.08904C107.27 2.87423 107.512 1.89645 107.995 1.15571C108.478 0.385341 109.081 0.0297852 109.806 0.0297852C110.551 0.0297852 111.154 0.41497 111.637 1.15571C112.1 1.92608 112.342 2.90386 112.342 4.1483V14.2224C113.026 13.3927 113.771 12.7705 114.596 12.3261C115.421 11.8816 116.266 11.6742 117.132 11.6742C119.748 11.6742 121.741 13.1261 123.089 16.0298C124.437 18.9335 125.162 22.1335 125.263 25.6594V25.9853V26.3705C125.263 29.8668 124.518 33.0668 123.008 35.9705C121.519 38.8742 119.486 40.2965 116.951 40.2965C116.79 40.2965 116.608 40.2964 116.447 40.2668C116.266 40.2372 116.105 40.2372 115.944 40.1779C115.22 39.9705 114.536 39.615 113.871 39.0816C113.207 38.5779 112.704 37.8372 112.322 36.9187C112.161 37.8965 111.879 38.6372 111.456 39.1705C111.054 39.7039 110.49 39.9705 109.786 39.9705C109.061 39.9705 108.458 39.615 107.975 38.8742C107.492 38.1335 107.25 37.1557 107.25 35.9113V35.8816H107.27ZM112.302 25.7483C112.302 25.9853 112.302 26.2224 112.322 26.4298C112.342 26.6372 112.342 26.8446 112.342 27.052C112.463 28.6816 112.825 30.1631 113.469 31.5261C114.093 32.889 115.039 33.5705 116.266 33.5705C117.414 33.5705 118.299 32.9187 118.943 31.6446C119.587 30.3409 119.969 28.9483 120.11 27.3779C120.13 27.1705 120.151 26.9631 120.171 26.7261C120.191 26.489 120.191 26.2816 120.191 26.0742C120.191 25.8668 120.191 25.6594 120.171 25.4224C120.151 25.1853 120.151 24.9779 120.11 24.7705C119.969 23.2002 119.587 21.7483 118.943 20.4446C118.299 19.1409 117.414 18.489 116.266 18.489C114.958 18.489 113.972 19.2298 113.348 20.6816C112.704 22.1335 112.362 23.7631 112.322 25.5113V25.689V25.8076V25.7483H112.302Z" fill="white"/>
<path d="M129.851 0.770508C130.596 0.800137 131.26 1.21495 131.824 2.04458C132.387 2.84458 132.689 3.82236 132.689 4.91866C132.689 6.10384 132.407 7.08162 131.864 7.94088C131.321 8.77051 130.636 9.21495 129.851 9.21495C129.107 9.21495 128.443 8.77051 127.879 7.91125C127.316 7.05199 127.014 6.04458 127.014 4.91866C127.014 3.85199 127.295 2.90384 127.879 2.07421C128.443 1.24458 129.107 0.829767 129.851 0.829767V0.770508ZM127.316 35.8816V16.0001C127.316 14.7853 127.557 13.8075 128.04 13.0668C128.523 12.2964 129.127 11.9409 129.851 11.9409C130.596 11.9409 131.2 12.3261 131.683 13.0668C132.146 13.8372 132.387 14.815 132.387 16.0594V35.8816C132.387 37.1557 132.146 38.1631 131.683 38.9038C131.22 39.6446 130.616 40.0001 129.851 40.0001C129.127 40.0001 128.523 39.6446 128.04 38.9038C127.557 38.1631 127.316 37.1853 127.316 35.9409V35.8816Z" fill="white"/>
<path d="M135.104 35.8816V4.08904C135.104 2.87423 135.345 1.89645 135.828 1.15571C136.311 0.385341 136.915 0.0297852 137.639 0.0297852C138.384 0.0297852 138.988 0.41497 139.471 1.15571C139.934 1.92608 140.175 2.90386 140.175 4.1483V35.8816C140.175 37.1557 139.934 38.1631 139.471 38.9039C139.008 39.6446 138.404 40.0002 137.639 40.0002C136.915 40.0002 136.311 39.6446 135.828 38.9039C135.345 38.1631 135.104 37.1853 135.104 35.9409V35.8816Z" fill="white"/>
<path d="M147.018 28.4444C147.199 30.311 147.763 31.674 148.668 32.5333C149.574 33.4222 150.621 33.837 151.788 33.837C152.452 33.837 153.036 33.6888 153.599 33.3629C154.143 33.0666 154.666 32.711 155.129 32.3259C155.592 31.9407 156.034 31.6147 156.417 31.2888C156.819 30.9925 157.182 30.8147 157.504 30.8147C158.047 30.8147 158.53 31.1407 158.933 31.8222C159.355 32.5036 159.556 33.2147 159.556 34.0147C159.556 35.3777 158.872 36.6518 157.483 37.837C156.095 39.0222 154.585 39.7629 152.935 40.1184C152.653 40.1481 152.371 40.1777 152.11 40.2073C151.848 40.237 151.587 40.2666 151.325 40.2666C148.487 40.2666 146.213 38.9036 144.462 36.2073C142.711 33.511 141.846 30.1036 141.846 26.0147C141.846 22.2222 142.691 18.874 144.361 15.9703C146.052 13.0666 148.226 11.6147 150.882 11.6147C153.237 11.6147 155.209 12.7703 156.799 15.0518C158.369 17.3333 159.375 19.8518 159.798 22.5777C159.838 22.9925 159.878 23.4073 159.919 23.8518C159.959 24.2666 159.979 24.711 159.979 25.1259C159.979 26.2222 159.798 27.0518 159.456 27.5851C159.114 28.1481 158.55 28.4147 157.765 28.4147H147.018V28.4444ZM154.948 23.4962C154.807 21.9259 154.384 20.5925 153.7 19.4962C153.016 18.3999 152.09 17.8666 150.902 17.8666C149.775 17.8666 148.87 18.3999 148.145 19.4962C147.441 20.5925 147.018 21.9259 146.897 23.4962H154.948Z" fill="white"/>
</g>
<defs>
<clipPath id="clip0_41_663">
<rect width="160" height="40" fill="white"/>
</clipPath>
</defs>
</svg>
